<svg xmlns="http://www.w3.org/2000/svg" viewBox="0 0 800 800"><defs><style>.cls-1{fill:#f1482d;}.cls-2,.cls-3{fill:#232075;}.cls-2{opacity:0.22;}.cls-3{opacity:0.44;}.cls-4{fill:#fff;}</style></defs><title>haveno_logo_icon</title><g id="Layer_1_copy" data-name="Layer 1 copy"><polygon class="cls-1" points="469.37 155.08 499.53 162.84 511.62 177.19 557.71 207.42 563.75 212.71 576.6 268.62 585.67 276.94 590.96 270.13 638.25 296.94 654.12 312.05 646.12 375.92 630.25 376.68 630.25 386.5 646.12 432.59 584.91 556.51 581.89 568.6 547.89 591.27 504.06 616.96 468.37 618.08 434.54 647.19 358.23 666.08 349.92 639.63 318.18 632.08 170.08 518.73 188.97 501.35 167.06 486.24 149.37 331.08 232.04 173.41 268.31 162.84 275.11 168.13 290.98 168.88 303.07 158.3 329.37 138.08 379.37 125.08 395.37 160.08 422.37 186.08 469.37 155.08"/><path class="cls-2" d="M510.93,216.49c24.31,7.8,36.09,30,57.63,72,23.3,45.44,35,68.16,26.9,88-9.52,23.41-38.88,31.5-35.86,48,1.51,8.27,9.51,9.62,11.52,20,2.61,13.4-7.81,26.12-11.52,30.66-28.3,34.58-68,16.05-103.74,49.32-12.79,11.91-6.63,13.27-32,44-22.74,27.53-34.11,41.29-48.66,44-28.25,5.24-58.53-24.33-73-49.32-18.74-32.38-4-45.06-21.77-78.65-20.61-38.91-46.78-33.88-61.47-70.64-10.55-26.37-6-51.37-2.57-70.65,3.21-17.82,13.66-75.79,52.51-94.64,37.83-18.37,56.84,22.57,110.14,8,33-9,41.66-29.07,89.65-38.65C486.59,214.25,497.55,212.2,510.93,216.49Z"/><path class="cls-3" d="M413.19,283c-32.8.14-104,.43-140.55,35.6-2.81,2.7-31,30.48-16.53,49.39,14,18.27,53.54,9.53,71.1,28.71,14.09,15.39-6,26.91-1.65,58.57,3.33,24.47,21.26,61.11,56.22,66.61,25.76,4.06,50.3-10.45,57.87-14.93,37.64-22.26,41.7-57.59,43-71.2,4.72-49.9-31.83-68.23-11.57-99.92,12.89-20.17,35.64-25.19,31.41-35.61C495.35,282.64,424.89,282.94,413.19,283Z"/><path class="cls-3" d="M342.76,336.08c6.17-12.18,41.43-22.94,66.07-14,14.5,5.26,22.66,16.39,20.94,26-2,11-4.24,13.62-9.77,24.92-7.46,15.25,13.11,19,15,40,1.67,18.59-23.39,40.09-32.62,40.08-60.38-.08.71-46.44-45.12-92C348.72,352.58,338.47,344.52,342.76,336.08Z"/></g><g id="Layer_4" data-name="Layer 4"><path class="cls-4" d="M354.58,380.91h94.33v-97h65.33V535.23H448.91v-103H354.58v103H289.26V283.92h65.32Z"/><circle class="cls-4" cx="402" cy="229" r="33"/></g></svg>