<?xml version="1.0" encoding="UTF-8"?>
<svg id="Layer_1" data-name="Layer 1" xmlns="http://www.w3.org/2000/svg" xmlns:xlink="http://www.w3.org/1999/xlink" viewBox="0 0 800 800">
  <defs>
    <linearGradient id="linear-gradient" x1="112.34" y1="236.16" x2="1032.76" y2="602.76" gradientUnits="userSpaceOnUse">
      <stop offset="0" stop-color="#fffbf6"/>
      <stop offset=".05" stop-color="#ffb742"/>
      <stop offset=".28" stop-color="#a74a12"/>
      <stop offset=".53" stop-color="#0b0b0b"/>
    </linearGradient>
  </defs>
  <path d="m335.39,141.55c0-35.68,28.93-64.61,64.61-64.61h0c35.68,0,64.61,28.93,64.61,64.61s-28.93,64.61-64.61,64.61h0c-35.68,0-64.61-28.93-64.61-64.61Zm129.22,323.06h129.22c0,71.37-57.85,129.22-129.22,129.22s-129.22-57.85-129.22-129.22v129.22c-71.37,0-129.22-57.85-129.22-129.22v-129.22c0-71.37,57.85-129.22,129.22-129.22s129.22,57.85,129.22,129.22v-129.22c71.37,0,129.22,57.85,129.22,129.22h0c0,71.37-57.85,129.22-129.22,129.22Zm0-64.61c0-35.68-28.93-64.61-64.61-64.61h0c-35.68,0-64.61,28.93-64.61,64.61s28.93,64.61,64.61,64.61h0c35.68,0,64.61-28.93,64.61-64.61Z" fill="url(#linear-gradient)"/>
</svg>