<svg xmlns="http://www.w3.org/2000/svg" xmlns:xlink="http://www.w3.org/1999/xlink" viewBox="0 0 800 800"><defs><radialGradient id="a" cx="400" cy="400" r="270.48" gradientUnits="userSpaceOnUse"><stop offset="0.13" stop-color="#fff9aa"/><stop offset="0.85" stop-color="#f15a24"/></radialGradient></defs><path d="M375.3,272.24l19.8,102.53c1.61,8.33,8.19,8.33,9.8,0l19.8-102.53c8-31.21-5.42-68.32-24.7-67.87C380.72,203.92,367.3,241,375.3,272.24Z" fill="#f15a24"/><circle cx="400" cy="148.59" r="42.53" fill="#f15a24" stroke="#f15a24" stroke-miterlimit="10" stroke-width="0.56"/><path d="M441.14,298.15l-16.78,81.93c-1.36,6.66,3.51,8.68,7.25,3l46.08-69.81c15.48-20.64,16.93-52.2,2.52-57.78C466.09,249.26,444.78,272.6,441.14,298.15Z" fill="#f15a24"/><path d="M484.82,342.8l-36.06,53.32c-2.93,4.33-.06,7.2,4.27,4.27l53.32-36.06c17.08-10.12,27.41-32.13,18.81-40.34C517,315.39,494.93,325.72,484.82,342.8Z" fill="#f15a24"/><path d="M535.87,371.46l-69.81,46.08c-5.67,3.74-3.65,8.61,3,7.25L551,408c25.55-3.65,48.89-24.94,42.65-39.07C588.08,354.53,556.5,356,535.87,371.46Z" fill="#f15a24"/><path d="M223.09,473.85l102.53-19.8c8.33-1.61,8.33-8.19,0-9.8l-102.53-19.8c-31.21-8-68.32,5.42-67.87,24.7C154.77,468.43,191.88,481.85,223.09,473.85Z" fill="#f15a24"/><path d="M249,408l81.93,16.78c6.66,1.36,8.68-3.51,3-7.25l-69.8-46.08c-20.65-15.48-52.21-16.93-57.79-2.52C200.11,383.06,223.45,404.37,249,408Z" fill="#f15a24"/><path d="M293.65,364.33,347,400.39c4.33,2.93,7.2.06,4.27-4.27L315.18,342.8c-10.12-17.08-32.13-27.41-40.34-18.81C266.24,332.2,276.57,354.22,293.65,364.33Z" fill="#f15a24"/><path d="M322.31,313.28l46.08,69.81c3.74,5.67,8.61,3.65,7.25-3l-16.78-81.93c-3.65-25.55-24.94-48.89-39.07-42.65C305.38,261.07,306.83,292.65,322.31,313.28Z" fill="#f15a24"/><path d="M424.7,626.06,404.9,523.53c-1.61-8.33-8.19-8.33-9.8,0L375.3,626.06c-8,31.21,5.42,68.32,24.7,67.87C419.28,694.38,432.7,657.27,424.7,626.06Z" fill="#f15a24"/><path d="M358.86,600.15l16.78-81.93c1.36-6.66-3.51-8.68-7.25-3L322.31,585c-15.48,20.65-16.93,52.21-2.52,57.79C333.91,649,355.22,625.7,358.86,600.15Z" fill="#f15a24"/><path d="M315.18,555.5l36.06-53.32c2.93-4.33.06-7.2-4.27-4.27L293.65,534c-17.08,10.12-27.41,32.13-18.81,40.34C283.05,582.91,305.07,572.58,315.18,555.5Z" fill="#f15a24"/><path d="M264.13,526.84l69.81-46.08c5.67-3.74,3.65-8.61-3-7.25L249,490.29c-25.55,3.65-48.89,24.94-42.65,39.07C211.92,543.76,243.5,542.32,264.13,526.84Z" fill="#f15a24"/><path d="M576.91,424.45l-102.53,19.8c-8.33,1.61-8.33,8.19,0,9.8l102.53,19.8c31.21,8,68.32-5.42,67.87-24.7C645.23,429.87,608.12,416.45,576.91,424.45Z" fill="#f15a24"/><path d="M551,490.29l-81.93-16.78c-6.66-1.36-8.68,3.51-3,7.25l69.8,46.08c20.65,15.48,52.21,16.93,57.79,2.52C599.89,515.24,576.55,493.93,551,490.29Z" fill="#f15a24"/><path d="M506.35,534,453,497.91c-4.33-2.93-7.2-.06-4.27,4.27l36.06,53.32c10.12,17.08,32.13,27.41,40.34,18.81C533.76,566.1,523.43,544.08,506.35,534Z" fill="#f15a24"/><path d="M477.69,585l-46.08-69.8c-3.74-5.67-8.61-3.65-7.25,3l16.78,81.93c3.65,25.55,24.94,48.89,39.07,42.65C494.62,637.23,493.17,605.65,477.69,585Z" fill="#f15a24"/><path d="M375.3,272.24l19.8,102.53c1.61,8.33,8.19,8.33,9.8,0l19.8-102.53c8-31.21-5.42-68.32-24.7-67.87C380.72,203.92,367.3,241,375.3,272.24Z" fill="url(#a)"/><circle cx="400" cy="148.59" r="42.53" fill="url(#a)"/><path d="M441.14,298.15l-16.78,81.93c-1.36,6.66,3.51,8.68,7.25,3l46.08-69.81c15.48-20.64,16.93-52.2,2.52-57.78C466.09,249.26,444.78,272.6,441.14,298.15Z" fill="url(#a)"/><path d="M484.82,342.8l-36.06,53.32c-2.93,4.33-.06,7.2,4.27,4.27l53.32-36.06c17.08-10.12,27.41-32.13,18.81-40.34C517,315.39,494.93,325.72,484.82,342.8Z" fill="url(#a)"/><path d="M535.87,371.46l-69.81,46.08c-5.67,3.74-3.65,8.61,3,7.25L551,408c25.55-3.65,48.89-24.94,42.65-39.07C588.08,354.53,556.5,356,535.87,371.46Z" fill="url(#a)"/><path d="M223.09,473.85l102.53-19.8c8.33-1.61,8.33-8.19,0-9.8l-102.53-19.8c-31.21-8-68.32,5.42-67.87,24.7C154.77,468.43,191.88,481.85,223.09,473.85Z" fill="url(#a)"/><path d="M249,408l81.93,16.78c6.66,1.36,8.68-3.51,3-7.25l-69.8-46.08c-20.65-15.48-52.21-16.93-57.79-2.52C200.11,383.06,223.45,404.37,249,408Z" fill="url(#a)"/><path d="M293.65,364.33,347,400.39c4.33,2.93,7.2.06,4.27-4.27L315.18,342.8c-10.12-17.08-32.13-27.41-40.34-18.81C266.24,332.2,276.57,354.22,293.65,364.33Z" fill="url(#a)"/><path d="M322.31,313.28l46.08,69.81c3.74,5.67,8.61,3.65,7.25-3l-16.78-81.93c-3.65-25.55-24.94-48.89-39.07-42.65C305.38,261.07,306.83,292.65,322.31,313.28Z" fill="url(#a)"/><path d="M424.7,626.06,404.9,523.53c-1.61-8.33-8.19-8.33-9.8,0L375.3,626.06c-8,31.21,5.42,68.32,24.7,67.87C419.28,694.38,432.7,657.27,424.7,626.06Z" fill="url(#a)"/><path d="M358.86,600.15l16.78-81.93c1.36-6.66-3.51-8.68-7.25-3L322.31,585c-15.48,20.65-16.93,52.21-2.52,57.79C333.91,649,355.22,625.7,358.86,600.15Z" fill="url(#a)"/><path d="M315.18,555.5l36.06-53.32c2.93-4.33.06-7.2-4.27-4.27L293.65,534c-17.08,10.12-27.41,32.13-18.81,40.34C283.05,582.91,305.07,572.58,315.18,555.5Z" fill="url(#a)"/><path d="M264.13,526.84l69.81-46.08c5.67-3.74,3.65-8.61-3-7.25L249,490.29c-25.55,3.65-48.89,24.94-42.65,39.07C211.92,543.76,243.5,542.32,264.13,526.84Z" fill="url(#a)"/><path d="M576.91,424.45l-102.53,19.8c-8.33,1.61-8.33,8.19,0,9.8l102.53,19.8c31.21,8,68.32-5.42,67.87-24.7C645.23,429.87,608.12,416.45,576.91,424.45Z" fill="url(#a)"/><path d="M551,490.29l-81.93-16.78c-6.66-1.36-8.68,3.51-3,7.25l69.8,46.08c20.65,15.48,52.21,16.93,57.79,2.52C599.89,515.24,576.55,493.93,551,490.29Z" fill="url(#a)"/><path d="M506.35,534,453,497.91c-4.33-2.93-7.2-.06-4.27,4.27l36.06,53.32c10.12,17.08,32.13,27.41,40.34,18.81C533.76,566.1,523.43,544.08,506.35,534Z" fill="url(#a)"/><path d="M477.69,585l-46.08-69.8c-3.74-5.67-8.61-3.65-7.25,3l16.78,81.93c3.65,25.55,24.94,48.89,39.07,42.65C494.62,637.23,493.17,605.65,477.69,585Z" fill="url(#a)"/></svg>